<svg width="173" height="173" viewBox="0 0 173 173" fill="none" xmlns="http://www.w3.org/2000/svg">
<path d="M81.0152 4.38582C82.3361 -1.46168 90.6679 -1.46168 91.9887 4.38582L100.301 41.1824C101.157 44.9722 105.506 46.7736 108.791 44.6992L140.687 24.5574C145.756 21.3565 151.647 27.248 148.447 32.3168L128.305 64.2133C126.23 67.4984 128.032 71.8473 131.821 72.7034L168.618 81.0152C174.466 82.3361 174.466 90.6679 168.618 91.9887L131.821 100.301C128.032 101.157 126.23 105.506 128.305 108.791L148.447 140.687C151.647 145.756 145.756 151.647 140.687 148.447L108.791 128.305C105.506 126.23 101.157 128.032 100.301 131.821L91.9887 168.618C90.6679 174.466 82.3361 174.466 81.0152 168.618L72.7034 131.821C71.8474 128.032 67.4984 126.23 64.2133 128.305L32.3168 148.447C27.248 151.647 21.3565 145.756 24.5574 140.687L44.6992 108.791C46.7736 105.506 44.9722 101.157 41.1825 100.301L4.38582 91.9887C-1.46168 90.6679 -1.46168 82.3361 4.38582 81.0152L41.1824 72.7034C44.9722 71.8474 46.7736 67.4984 44.6992 64.2133L24.5574 32.3168C21.3565 27.248 27.248 21.3565 32.3168 24.5574L64.2133 44.6992C67.4984 46.7736 71.8473 44.9722 72.7034 41.1825L81.0152 4.38582Z" fill="#1BEA7B"/>
</svg>
